<svg width="54" height="54" viewBox="0 0 54 54" fill="none" xmlns="http://www.w3.org/2000/svg">
<g filter="url(#filter0_d_49_55)">
<rect x="7" y="3" width="40" height="40" fill="#411F13"/>
<rect x="7" width="6" height="6" fill="#411F13"/>
<rect x="41" y="40" width="6" height="6" fill="#411F13"/>
<rect x="7" y="40" width="6" height="6" fill="#411F13"/>
<rect x="44" y="37" width="6" height="6" fill="#411F13"/>
<rect x="4" y="37" width="6" height="6" fill="#411F13"/>
<rect x="44" y="3" width="6" height="6" fill="#411F13"/>
<rect x="41" width="6" height="6" fill="#411F13"/>
<rect x="4" y="3" width="6" height="6" fill="#411F13"/>
<rect x="40" y="16" width="3" height="10" fill="#BDA07E"/>
<rect x="37" y="13" width="3" height="3" fill="#BDA07E"/>
<rect x="32" y="10" width="5" height="3" fill="#BDA07E"/>
<rect x="32" y="29" width="5" height="3" fill="#BDA07E"/>
<path d="M17 32H32V35H17V32Z" fill="#BDA07E"/>
<path d="M17 33H16V34H17V33Z" fill="#BDA07E"/>
<path d="M17.7899 32.2076L24.2985 38.7163L22.5094 40.5054L16.0007 33.9968L17.7899 32.2076Z" fill="#BDA07E"/>
<path d="M15.9958 32.9998L22.4874 26.5082L24.3283 28.349L17.8367 34.8406L15.9958 32.9998Z" fill="#BDA07E"/>
<rect x="37" y="26" width="3" height="3" fill="#BDA07E"/>
<rect x="14" y="7" width="18" height="3" fill="#BDA07E"/>
</g>
<defs>
<filter id="filter0_d_49_55" x="0" y="0" width="54" height="54" filterUnits="userSpaceOnUse" color-interpolation-filters="sRGB">
<feFlood flood-opacity="0" result="BackgroundImageFix"/>
<feColorMatrix in="SourceAlpha" type="matrix" values="0 0 0 0 0 0 0 0 0 0 0 0 0 0 0 0 0 0 127 0" result="hardAlpha"/>
<feOffset dy="4"/>
<feGaussianBlur stdDeviation="2"/>
<feComposite in2="hardAlpha" operator="out"/>
<feColorMatrix type="matrix" values="0 0 0 0 0 0 0 0 0 0 0 0 0 0 0 0 0 0 0.25 0"/>
<feBlend mode="normal" in2="BackgroundImageFix" result="effect1_dropShadow_49_55"/>
<feBlend mode="normal" in="SourceGraphic" in2="effect1_dropShadow_49_55" result="shape"/>
</filter>
</defs>
</svg>
