<svg width="313" height="56" viewBox="0 0 313 56" fill="none" xmlns="http://www.w3.org/2000/svg">
<path d="M0.5 32V24V16H8.5V8H16.5V16H24.5H32.5H40.5V8H48.5H56.5H64.5H72.5V16H64.5V24H72.5H80.5V32H88.5V40V48V56H80.5H72.5V48V40H64.5H56.5V32H48.5V40H40.5V32H32.5H24.5H16.5H8.5H0.5ZM48.5 48V40H56.5V48H48.5ZM72.5 8V0H80.5V8H72.5ZM120.5 32V24V16H128.5H136.5V24H144.5H152.5H160.5H168.5H176.5H184.5H192.5V32V40H184.5H176.5V32H168.5H160.5H152.5H144.5H136.5H128.5H120.5ZM224.5 56V48V40V32H232.5V24H240.5H248.5V16H240.5V8H248.5H256.5H264.5H272.5V16H280.5H288.5H296.5V8H304.5V16H312.5V24V32H304.5H296.5H288.5H280.5H272.5V40H264.5V32H256.5V40H248.5H240.5V48V56H232.5H224.5ZM232.5 8V0H240.5V8H232.5ZM256.5 48V40H264.5V48H256.5Z" fill="#BDA07E"/>
</svg>
