<svg width="150" height="150" viewBox="0 0 150 150" fill="none" xmlns="http://www.w3.org/2000/svg">
<rect x="50" width="50" height="20" fill="#BDA07E"/>
<rect x="10" y="50" width="50" height="10" transform="rotate(90 10 50)" fill="#D9D9D9"/>
<rect x="20" y="50" width="50" height="20" transform="rotate(90 20 50)" fill="#BDA07E"/>
<rect x="130" y="20" width="110" height="110" transform="rotate(90 130 20)" fill="#BDA07E"/>
<rect x="130" y="100" width="50" height="20" transform="rotate(-90 130 100)" fill="#BDA07E"/>
<rect x="50" y="130" width="50" height="20" fill="#BDA07E"/>
<rect x="30" y="10" width="20" height="10" fill="#BDA07E"/>
<rect x="90" y="10" width="10" height="10" fill="#EFE3D5"/>
<rect x="50" y="120" width="10" height="10" fill="#E0BD95"/>
<rect x="70" y="100" width="10" height="10" fill="#E8CEB0"/>
<rect x="60" y="110" width="10" height="10" fill="#E0BD95"/>
<rect x="80" y="90" width="10" height="10" fill="#EFE3D5"/>
<rect x="90" y="80" width="10" height="10" fill="#EFE3D5"/>
<rect x="100" y="70" width="10" height="10" fill="#EFE3D5"/>
<rect x="110" y="60" width="10" height="10" fill="#EFE3D5"/>
<rect x="120" y="50" width="10" height="10" fill="#EFE3D5"/>
<rect x="30" y="70" width="10" height="10" fill="#E8CEB0"/>
<rect x="10" y="90" width="10" height="10" fill="#E0BD95"/>
<rect x="20" y="80" width="10" height="10" fill="#E0BD95"/>
<rect x="40" y="60" width="10" height="10" fill="#E8CEB0"/>
<rect x="50" y="50" width="10" height="10" fill="#EFE3D5"/>
<rect x="60" y="40" width="10" height="10" fill="#EFE3D5"/>
<rect x="70" y="30" width="10" height="10" fill="#EFE3D5"/>
<rect x="80" y="20" width="10" height="10" fill="#EFE3D5"/>
<rect x="130" y="120" width="20" height="10" transform="rotate(-90 130 120)" fill="#BDA07E"/>
<rect x="130" y="50" width="20" height="10" transform="rotate(-90 130 50)" fill="#BDA07E"/>
<rect x="30" y="130" width="20" height="10" fill="#BDA07E"/>
<rect x="100" y="130" width="20" height="10" fill="#BDA07E"/>
<rect x="20" y="100" width="20" height="10" transform="rotate(90 20 100)" fill="#BDA07E"/>
<rect x="20" y="30" width="20" height="10" transform="rotate(90 20 30)" fill="#BDA07E"/>
<rect x="100" y="10" width="20" height="10" fill="#BDA07E"/>
<rect x="130" y="40" width="10" height="10" fill="#EFE3D5"/>
<rect x="40" y="130" width="10" height="10" fill="#E0BD95"/>
<rect x="130" y="110" width="10" height="10" fill="#EFE3D5"/>
<rect x="110" y="130" width="10" height="10" fill="#E0BD95"/>
<rect x="120" y="120" width="10" height="10" fill="#E8CEB0"/>
<path d="M17 76V71V66H22V61H27V66H32H37H42V61H47H52H57H62V66H57V71H62H67V76H72V81V86V91H67H62V86V81H57H52V76H47V81H42V76H37H32H27H22H17ZM47 86V81H52V86H47ZM62 61V56H67V61H62ZM77 91V86V81V76H82V71H87H92V66H87V61H92H97H102H107V66H112H117H122V61H127V66H132V71V76H127H122H117H112H107V81H102V76H97V81H92H87V86V91H82H77ZM82 61V56H87V61H82ZM97 86V81H102V86H97Z" fill="#411F13"/>
</svg>
